<svg xmlns="http://www.w3.org/2000/svg" width="30" height="25.4"><g fill="#FDD731"><path d="M25 13.9c-.1 0-.1-.1-.2-.1-.2 0-.3.1-.4.2l-1.2 1.2c-.1.1-.2.2-.2.4v4.6c0 .8-.3 1.5-.8 2-.6.6-1.2.8-2 .8h-15c-.8 0-1.5-.3-2-.8-.6-.6-.8-1.2-.8-2v-15c0-.8.3-1.5.8-2 .6-.6 1.2-.8 2-.8h15c.3 0 .5 0 .8.1h.2c.2 0 .3-.1.4-.2l.9-.9c.1-.1.2-.3.2-.5s-.1-.3-.3-.4C21.7.2 21 0 20.2 0h-15C3.8 0 2.5.5 1.5 1.5S0 3.8 0 5.2v15c0 1.4.5 2.7 1.5 3.7s2.2 1.5 3.7 1.5h15c1.4 0 2.7-.5 3.7-1.5s1.5-2.2 1.5-3.7v-5.7c0-.3-.1-.5-.4-.6z"/><path d="M29.6 3.6l-2-2c-.3-.3-.6-.4-1-.4s-.7.1-1 .4L13.9 13.3 9.1 8.5c-.3-.3-.6-.4-1-.4s-.7.1-1 .4l-2 2c-.3.3-.4.6-.4 1s.1.7.4 1l7.8 7.8c.3.3.6.4 1 .4s.7-.1 1-.4L29.6 5.6c.3-.2.4-.6.4-1s-.1-.7-.4-1z"/></g></svg>