<svg xmlns="http://www.w3.org/2000/svg" width="45" height="45"><g fill="#FDD731"><path d="M43 10.3h-9.6c1.3 1.2 2.4 2.6 3.3 4.1H43c1.1 0 2-.9 2-2 0-1.2-.9-2.1-2-2.1zm0 5.2h-5.7c.6 1.3 1.1 2.7 1.3 4.1H43c1.1 0 2-.9 2-2s-.9-2.1-2-2.1zm0-10.3H27.8c-.9 0-1.6.6-1.9 1.3 2.3.5 4.3 1.4 6.2 2.8H43c1.1 0 2-.9 2-2s-.9-2.1-2-2.1zM27.8 4.1H43c1.1 0 2-.9 2-2s-.9-2-2-2H27.8c-1.1 0-2 .9-2 2s.9 2 2 2zM43 20.6h-4.2c.1.6.1 1.2.1 1.9 0 .8-.1 1.5-.2 2.2H43c1.1 0 2-.9 2-2s-.9-2.1-2-2.1zm0 5.2h-4.4c-.3 1.4-.8 2.8-1.4 4.1H43c1.1 0 2-.9 2-2 0-1.2-.9-2.1-2-2.1zm0 5.1h-6.5c-.9 1.5-2.1 2.9-3.5 4.1h10c1.1 0 2-.9 2-2s-.9-2.1-2-2.1zM2 24.4h4.2c-.1-.6-.1-1.2-.1-1.9 0-.8.1-1.5.2-2.2H2c-1.1 0-2 .9-2 2 0 1.2.9 2.1 2 2.1zm0 5.1h5.7c-.6-1.3-1.1-2.7-1.3-4.1H2c-1.1 0-2 .9-2 2s.9 2.1 2 2.1zm0-10.3h4.4c.3-1.4.8-2.8 1.4-4.1H2c-1.1 0-2 .9-2 2 0 1.2.9 2.1 2 2.1zm0-5.1h6.5c.9-1.5 2.1-2.9 3.5-4.1H2c-1.1 0-2 .9-2 2s.9 2.1 2 2.1zm0 20.6h9.6c-1.3-1.2-2.4-2.6-3.3-4.1H2c-1.1 0-2 .9-2 2 0 1.2.9 2.1 2 2.1zm0 5.1h15.1c.9 0 1.6-.6 1.9-1.3-2.3-.5-4.3-1.4-6.2-2.8H2c-1.1 0-2 .9-2 2 0 1.2.9 2.1 2 2.1zm15.2 1.1H2c-1.1 0-2 .9-2 2s.9 2 2 2h15.1c1.1 0 2-.9 2-2 .1-1.1-.8-2-1.9-2zm5.3-32.7c-7.9 0-14.3 6.4-14.3 14.3s6.4 14.3 14.3 14.3 14.3-6.4 14.3-14.3S30.4 8.2 22.5 8.2zm0 24.5c-5.6 0-10.2-4.6-10.2-10.2s4.6-10.2 10.2-10.2 10.2 4.6 10.2 10.2-4.6 10.2-10.2 10.2z"/><path d="M23.1 21.1v-3.5c2.1 0 2 2 3.3 2 .6 0 1.2-.4 1.2-1.2 0-1.8-3-2.7-4.4-2.8v-1c0-.3-.2-.6-.6-.6-.3 0-.6.3-.6.6v1c-2.3.1-4.4 1.4-4.4 3.9 0 2.1 1.7 3.3 4.4 3.8v3.9c-3.1-.1-1.5-2.7-3.6-2.7-.7 0-1.2.4-1.2 1.2 0 1.5 1.6 3.3 4.7 3.4v1.2c0 .3.2.6.6.6.3 0 .6-.3.6-.6v-1.2c2.8-.2 4.6-1.4 4.6-3.9 0-2.8-2.1-3.6-4.6-4.1zm-1.1-.2c-1.4-.3-2.1-.8-2.1-1.8 0-.8.8-1.5 2.1-1.6v3.4zm1.1 6.4v-3.7c1 .2 2.3.6 2.3 1.9 0 1.2-1.2 1.7-2.3 1.8z"/></g></svg>