<svg xmlns="http://www.w3.org/2000/svg" width="40" height="25.7"><path fill="#FDD731" d="M39.6 11.3c-2.1-3.4-4.9-6.1-8.4-8.2C27.6 1 23.9 0 20 0S12.4 1 8.9 3.1 2.6 7.9.5 11.3c-.3.5-.4 1-.4 1.5s.1 1 .4 1.5c2.1 3.4 4.9 6.1 8.4 8.2 3.5 2.1 7.2 3.1 11.1 3.1 3.9 0 7.6-1 11.1-3.1s6.3-4.8 8.4-8.2c.3-.5.4-1 .4-1.5.1-.4 0-1-.3-1.5zM15.2 5.2c1.3-1.3 2.9-2 4.8-2 .3 0 .6.1.8.3.2.2.3.5.3.8 0 .3-.1.6-.3.8-.2.2-.5.3-.8.3-1.3 0-2.4.5-3.3 1.4-.9.9-1.4 2-1.4 3.3 0 .3-.1.6-.3.8-.2.2-.5.3-.8.3-.3 0-.6-.1-.8-.3-.2-.2-.3-.5-.3-.8.1-2 .8-3.6 2.1-4.9zm14.5 14.9c-3 1.8-6.2 2.7-9.7 2.7-3.5 0-6.7-.9-9.7-2.7s-5.5-4.2-7.4-7.3C5.1 9.3 8 6.7 11.4 5c-.9 1.5-1.4 3.2-1.4 5 0 2.8 1 5.1 2.9 7.1S17.2 20 20 20s5.1-1 7.1-2.9S30 12.8 30 10c0-1.8-.5-3.5-1.4-5 3.4 1.7 6.2 4.4 8.5 7.9-1.9 3-4.4 5.4-7.4 7.2z"/></svg>