<svg xmlns="http://www.w3.org/2000/svg" width="45" height="45"><g fill="#FDD731"><path d="M30.1 6.2c.6-1.3 1.2-2.7 1.9-4.1-7.2-3-14.3-2.9-21.1 1.1C4.5 7.1.9 13 0 20.6c1.5.1 3 .3 4.5.4C5.3 9.5 18 .7 30.1 6.2zm14.6 12.5c-1.5.3-2.9.5-4.4.8.8 5.3-.3 10-3.5 14.1s-7.5 6.4-12.7 7c.1 1.5.3 2.9.4 4.4 10.9-.5 22.6-11.4 20.2-26.3zM4.4 24.2c-1.4.1-2.8.2-4.3.4C.5 33.7 8.5 44 20.5 45c.1-1.5.3-2.9.4-4.4-9.4-1.5-14.9-7-16.5-16.4zm32.4-12.6c1.1 1.5 2 3.1 2.7 4.8l4.2-1.5c-1.7-4.4-4.4-8-8.3-10.8-.9 1.2-1.7 2.4-2.6 3.7 1.5 1.1 2.8 2.3 4 3.8z"/><path d="M28 16.5c-.4 0-.7.3-.7.7v14.5c0 .4.3.7.7.7h5c.4 0 .7-.3.7-.7V17.2c0-.4-.3-.7-.7-.7h-5zM32.3 31h-3.6V18h3.6v13zM11.9 20.3c-.4 0-.7.3-.7.7v10.7c0 .4.3.7.7.7h5c.4 0 .7-.3.7-.7V21.1c0-.4-.3-.7-.7-.7l-5-.1zm.8 10.7v-1.1l1.1 1.1h-1.1zm2.3 0l-2.3-2.3v-1.2l3.5 3.5H15zm1.2-1.1l-3.6-3.6v-1.2l3.6 3.6v1.2zm0-2.3L12.6 24v-1.2l3.6 3.6v1.2zm0-2.3l-3.5-3.5h1.2l2.3 2.3v1.2zm0-2.3l-1.1-1.1h1.1V23zM20 10.6c-.4 0-.7.3-.7.7v20.4c0 .4.3.7.7.7h5c.4 0 .7-.3.7-.7V11.3c0-.4-.3-.7-.7-.7h-5z"/></g></svg>