<svg xmlns="http://www.w3.org/2000/svg" width="30" height="33"><g fill="#FDD731"><path d="M10.9 26.2l-2.7.4c-.7.1-1.5-.1-2.1-.5-.6-.4-1-1.1-1.1-1.8l-.2-1.6-4.6 4.6c-.2.3-.3.6-.2.9.1.3.4.5.7.6l2.9.5.5 2.9c.1.3.3.6.6.7.3.1.6 0 .9-.2l6-6-.4-.4c0-.1-.2-.1-.3-.1z"/><path d="M19.3 25.1l2.6.4c.4.1.9 0 1.2-.3.4-.3.6-.6.7-1.1l.4-2.6c.1-.5.4-1 .9-1.2l2.3-1.2c.4-.2.7-.5.8-1 .1-.4.1-.9-.1-1.3l-1.2-2.3c-.2-.5-.2-1 0-1.5l1.2-2.3c.2-.4.2-.8.1-1.3-.1-.4-.4-.8-.8-1l-2.3-1.2c-.5-.2-.8-.7-.9-1.2l-.4-2.6c-.1-.4-.3-.8-.7-1.1-.4-.3-.8-.4-1.2-.3l-2.6.4c-.5.1-1-.1-1.4-.5L16.1 0c-.3.2-.7 0-1.1 0-.4 0-.8.2-1.1.5l-1.8 1.9c-.4.4-.9.5-1.4.5l-2.6-.5c-.4-.1-.9 0-1.2.3-.4.2-.6.6-.7 1l-.4 2.6c-.1.5-.4 1-.9 1.2L2.6 8.7c-.4.2-.7.5-.8 1-.1.4-.1.9.1 1.3l1.2 2.3c.2.5.2 1 0 1.5L1.9 17c-.2.4-.2.8-.1 1.3.1.4.4.8.8 1l2.3 1.2c.5.2.8.7.9 1.2l.4 2.6c.1.4.3.8.7 1.1.4.3.8.4 1.2.3l2.6-.4c.5-.1 1 .1 1.4.5l1.8 1.9c.3.3.7.5 1.1.5.4 0 .8-.2 1.1-.5l1.8-1.9c.4-.6.9-.8 1.4-.7zM15 23.6c-5.5 0-9.9-4.5-9.9-9.9 0-5.5 4.4-9.9 9.9-9.9s9.9 4.5 9.9 9.9c0 5.5-4.4 9.9-9.9 9.9z"/><path d="M15 5.2c-4.7 0-8.4 3.8-8.4 8.5s3.8 8.5 8.4 8.5c4.7 0 8.4-3.8 8.4-8.5S19.7 5.2 15 5.2zm14.7 22.2l-4.6-4.6-.2 1.6c-.1.7-.5 1.4-1.1 1.8-.6.4-1.3.6-2.1.5l-2.7-.4c-.1 0-.3.1-.4.1l-.4.4 6 6c.2.2.6.3.9.2.3-.1.5-.4.6-.7l.5-2.9 2.9-.5c.3-.1.6-.3.7-.6.3-.4.2-.7-.1-.9z"/></g></svg>