<svg xmlns="http://www.w3.org/2000/svg" width="34" height="45.8"><g fill="#FDD731"><path d="M33.9 20.7l-2.2-3.1c-.1-.2-.1-.5 0-.7l2.2-3.1c.2-.3.1-.7-.2-.8l-3.3-1.8c-.2-.1-.3-.4-.3-.6l.6-3.7c.1-.3-.2-.7-.5-.7L26.4 6c-.2 0-.5-.2-.5-.4l-1-3.6c-.1-.3-.5-.5-.8-.4l-3.5 1.5c-.2.1-.5 0-.7-.1L17.4.2c-.2-.3-.6-.3-.9 0L14 3.1c-.2.2-.4.2-.6.1L9.8 1.8c-.3-.2-.7 0-.8.3L8 5.8c0 .2-.2.4-.5.4l-3.8.2c-.3 0-.6.3-.5.7l.7 3.7c0 .2-.1.5-.3.6L.3 13.2c-.3.2-.4.6-.2.8l2.2 3.1c.1.2.1.5 0 .7L.1 20.9c-.2.3-.1.7.2.8l3.3 1.8c.3.1.4.4.4.6l-.6 3.7c-.1.3.2.7.5.7l3.8.2c.2 0 .5.2.5.4l1.1 3.6c.1.3.5.5.8.4l3.5-1.5c.2-.1.5 0 .7.1l2.5 2.8c.2.3.6.3.9 0l2.5-2.9c.2-.2.4-.2.6-.1l3.5 1.4c.3.1.7 0 .8-.4l1-3.6c.1-.2.3-.4.5-.4l3.8-.2c.3 0 .6-.3.5-.7l-.7-3.7c0-.2.1-.5.3-.6l3.3-1.8c.2-.2.3-.6.1-.8zm-16.9 7c-5.7 0-10.3-4.6-10.3-10.3S11.3 7.1 17 7.1s10.3 4.6 10.3 10.3c0 5.6-4.6 10.3-10.3 10.3zm9.3 6.6c-.5.6-1.3.9-2.1.9-.3 0-.6 0-.9-.1l-2.4-.7L19 36l-.2.2 3 9.3c.1.3.5.4.7.1l2.2-2.8c.1-.1.3-.2.4-.1l3.4 1c.3.1.6-.2.5-.5l-2.7-8.9zm-13.2 0l-2.4.7c-.3.1-.6.1-.9.1-.8 0-1.6-.3-2.1-.9L4.8 43c-.1.3.2.6.5.5l3.4-1c.2 0 .3 0 .4.1l2.2 2.8c.2.3.6.2.7-.1l3-9.3c-.1 0-.1-.1-.2-.2l-1.7-1.5z"/><path d="M23.1 14.8l-3.9-.3-1.5-3.6c-.3-.7-1.2-.7-1.5 0l-1.5 3.6-3.9.3c-.7.1-1 1-.5 1.4l3 2.5-.9 3.8c-.2.7.6 1.3 1.2.9l3.3-2 3.3 2c.6.4 1.4-.2 1.2-.9l-.9-3.8 3-2.5c.6-.4.3-1.3-.4-1.4z"/></g></svg>