<svg xmlns="http://www.w3.org/2000/svg" width="36" height="33"><g fill="#FDD731"><path d="M33 25.7l-5.7-2.9c-.5-.3-.9-.8-.9-1.4v-2c.1-.2.3-.4.4-.6.7-1 1.3-2.2 1.8-3.5.8-.4 1.4-1.2 1.4-2.2v-2.4c0-.6-.2-1.1-.6-1.6V6c0-.3.2-2.3-1.3-3.9C26.9.7 24.9 0 22.2 0s-4.7.7-5.9 2.1C14.8 3.7 15 5.7 15 6v3.2c-.4.4-.6 1-.6 1.6v2.4c0 .7.3 1.4.9 1.9.5 2.2 1.7 3.8 2.1 4.3v2c0 .6-.3 1.1-.8 1.4l-5.4 2.9c-1.7.9-2.8 2.8-2.8 4.8V33H36v-2.4c0-2.1-1.1-3.9-3-4.9z"/><path d="M10.8 24.9l5.4-2.9c.2-.1.4-.4.4-.6v-1.7c-.5-.7-1.5-2.2-2-4.1-.6-.6-1-1.5-1-2.4v-2.4c0-.7.2-1.3.6-1.9V6.1c0-.2 0-.8.1-1.4-.8-.3-1.7-.4-2.8-.4-6.2 0-6.6 5.3-6.6 5.4v2.7c-.4.4-.6.9-.6 1.4v2.1c0 .6.3 1.3.8 1.7.5 1.9 1.7 3.3 2.2 3.8V23c0 .5-.3.9-.7 1.1l-4 2.5C.9 27.4 0 29 0 30.7V33h7.5v-2.5c0-2.4 1.3-4.5 3.3-5.6z"/></g></svg>